<svg width="150" height="36" viewBox="0 0 150 36" fill="none" xmlns="http://www.w3.org/2000/svg">
<g clip-path="url(#clip0_390_10902)">
<path d="M26.1125 2.53531V20.8869C26.1125 23.0918 26.275 24.9679 27.2074 27.335H21.6131C22.4642 24.9679 22.6666 23.0918 22.6666 20.8869V2.53531C18.451 2.69898 17.2349 3.38147 15.4928 7.95199L15.5327 0.810547H33.2465L33.2863 7.95199C31.5442 3.38147 30.3726 2.70207 26.1125 2.53531Z" fill="#FFFFFF"/>
<path d="M50.3868 20.849L50.4681 27.3342H35.51C36.4025 24.9671 36.5651 23.091 36.5651 20.8861V7.25477C36.5651 5.05135 36.4025 3.17374 35.51 0.806641H50.465L50.3024 7.13743C48.3978 3.83152 46.533 2.61786 40.9801 2.61786H40.1689C40.0477 4.33335 40.0063 5.50377 40.0063 7.25941V13.0544H41.02C44.7894 13.0544 45.8322 12.4368 47.7368 10.1577V16.9316C45.8322 14.8919 44.7894 14.2387 41.02 14.2387H40.0063V20.8861C39.9866 22.4369 40.068 23.9875 40.2502 25.5276H40.9801C46.533 25.5276 48.0727 24.4776 50.3837 20.8459" fill="#FFFFFF"/>
<path d="M54.7988 25.7878V7.25869C54.7988 5.05526 54.6362 3.17764 53.7452 0.810547H59.2583C58.3259 3.17764 58.2032 5.05526 58.2032 7.25869V25.3802C58.2032 29.9924 56.2096 33.9499 52.3666 35.5002C54.3939 32.7208 54.7988 30.4402 54.7988 25.7878Z" fill="#FFFFFF"/>
<path d="M77.5747 20.849L77.656 27.3342H62.698C63.5905 24.9671 63.7531 23.091 63.7531 20.8861V7.25477C63.7531 5.05135 63.5905 3.17374 62.698 0.806641H77.656L77.4935 7.13743C75.5888 3.83152 73.724 2.61786 68.1696 2.61786H67.3599C67.2388 4.33335 67.1974 5.50377 67.1974 7.25941V13.0544H68.211C71.9804 13.0544 73.0232 12.4368 74.9279 10.1577V16.9316C73.0232 14.8919 71.9804 14.2387 68.211 14.2387H67.1974V20.8861C67.1776 22.4369 67.2591 23.9875 67.4412 25.5276H68.1696C73.724 25.5276 75.2637 24.4776 77.5747 20.8459" fill="#FFFFFF"/>
<path d="M83.7702 6.36207C83.7702 8.48366 85.1503 9.78996 88.5533 11.9115L91.513 13.749C94.3101 15.463 96.0522 17.3004 96.0522 20.3191C96.0522 25.0533 92.2015 27.8698 88.2696 27.8698C84.0953 27.8698 81.338 24.936 80.082 21.0943L82.2888 16.8032C83.7073 22.0686 87.2973 26.1558 89.4458 26.1558C91.7553 26.1558 93.4176 24.7661 93.4176 22.4006C93.4176 20.2389 92.7689 18.8909 89.6068 16.9314L85.8773 14.606C83.2442 12.9739 81.0957 11.2182 81.0957 7.99418C81.0957 3.99497 84.5001 0.525391 89.9319 0.525391C91.9991 0.525391 93.9467 1.40861 95.244 1.97993L94.4313 7.34103C92.5266 3.87145 89.9718 2.44315 87.4997 2.44315C85.2301 2.44315 83.7702 3.91159 83.7702 6.36207Z" fill="#FFFFFF"/>
<path d="M108.652 2.53531V20.8869C108.652 23.0918 108.816 24.9679 109.747 27.335H104.154C105.005 24.9679 105.207 23.0918 105.207 20.8869V2.53531C100.992 2.69898 99.7756 3.38147 98.032 7.95199L98.0734 0.810547H115.793L115.833 7.95199C114.09 3.38147 112.919 2.70207 108.658 2.53531" fill="#FFFFFF"/>
<path d="M119.754 17.5834L123.282 5.78802L126.767 17.5834H119.754ZM134.509 27.3374C133.251 25.7933 132.515 23.9512 131.595 21.0066L125.884 2.76469L125.852 2.65197C125.959 1.91401 126.143 1.18945 126.401 0.490234H122.234C122.495 1.18612 122.683 1.90751 122.795 2.6427L117.086 21.002C116.154 23.9358 115.342 25.7362 114.005 27.3328H118.747C118.383 26.7151 118.221 25.7007 118.221 24.5534C118.224 23.4204 118.388 22.2937 118.707 21.2074L119.437 18.7584H127.138L127.868 21.2074C128.145 22.2591 128.282 23.3433 128.275 24.4314C128.275 25.6559 128.111 26.7568 127.908 27.3281L134.509 27.3374Z" fill="#FFFFFF"/>
</g>
<defs>
<clipPath id="clip0_390_10902">
<rect width="149.906" height="35" fill="white" transform="translate(0.0471191 0.5)"/>
</clipPath>
</defs>
</svg>
