<svg width="331" height="24" viewBox="0 0 331 24" fill="none" xmlns="http://www.w3.org/2000/svg">
<g clip-path="url(#clip0_201_2)">
<path d="M13.82 23.91C10.82 23.91 8.28 23.46 6.22 22.55C4.16 21.64 2.6 20.3 1.56 18.51C0.52 16.73 0 14.54 0 11.93C0 8.12 1.19 5.18 3.56 3.1C5.94 1.04 9.34 0 13.76 0C16.34 0 18.6 0.34 20.55 1.01C22.5 1.68 24.02 2.69 25.11 4.02C26.2 5.35 26.74 7.01 26.74 8.98H23.14C23.14 7.59 22.75 6.46 21.96 5.6C21.17 4.74 20.07 4.11 18.65 3.72C17.23 3.33 15.57 3.13 13.69 3.13C11.81 3.13 10.01 3.44 8.51 4.05C7.01 4.67 5.84 5.6 5 6.84C4.16 8.09 3.74 9.64 3.74 11.5V12.34C3.74 14.29 4.17 15.89 5.02 17.13C5.87 18.37 7.05 19.3 8.57 19.9C10.08 20.51 11.84 20.81 13.83 20.81C15.82 20.81 17.39 20.6 18.81 20.19C20.23 19.78 21.32 19.14 22.09 18.27C22.86 17.41 23.25 16.31 23.25 14.99H26.78C26.78 16.94 26.23 18.58 25.13 19.9C24.03 21.22 22.51 22.22 20.57 22.89C18.63 23.56 16.38 23.9 13.83 23.9L13.82 23.91Z" fill="black"/>
<path d="M53.31 23.91C50.31 23.91 47.71 23.45 45.52 22.53C43.33 21.61 41.65 20.27 40.48 18.49C39.3 16.72 38.71 14.54 38.71 11.96C38.71 9.37998 39.3 7.16998 40.48 5.39998C41.66 3.62998 43.34 2.27998 45.52 1.35998C47.71 0.43998 50.3 -0.0200195 53.31 -0.0200195C56.32 -0.0200195 58.94 0.43998 61.11 1.35998C63.28 2.27998 64.96 3.61998 66.14 5.39998C67.32 7.16998 67.91 9.35998 67.91 11.96C67.91 14.56 67.32 16.71 66.14 18.49C64.96 20.26 63.29 21.61 61.11 22.53C58.93 23.45 56.33 23.91 53.31 23.91ZM53.31 20.82C54.86 20.82 56.29 20.65 57.6 20.32C58.91 19.98 60.06 19.47 61.05 18.79C62.04 18.11 62.8 17.23 63.35 16.15C63.9 15.07 64.17 13.8 64.17 12.32V11.58C64.17 10.1 63.9 8.82998 63.35 7.75998C62.8 6.69998 62.03 5.81998 61.05 5.13998C60.06 4.45998 58.91 3.94998 57.6 3.62998C56.29 3.30998 54.86 3.13998 53.31 3.13998C51.76 3.13998 50.36 3.29998 49.04 3.62998C47.72 3.95998 46.56 4.45998 45.58 5.13998C44.59 5.81998 43.83 6.69998 43.29 7.75998C42.75 8.82998 42.48 10.1 42.48 11.58V12.32C42.48 13.8 42.75 15.08 43.29 16.15C43.83 17.22 44.6 18.11 45.59 18.79C46.59 19.47 47.74 19.98 49.05 20.32C50.36 20.66 51.78 20.82 53.3 20.82H53.31Z" fill="black"/>
<path d="M80.8799 23.51V0.400024H84.5099V20.28H99.0099V23.51H80.8799Z" fill="black"/>
<path d="M110.58 23.51V0.400024H114.21V20.28H128.71V23.51H110.58Z" fill="black"/>
<path d="M140.28 23.51V0.400024H163.02V3.53002H143.92V10.16H161.11V13.25H143.92V20.41H163.29V23.5H140.29L140.28 23.51Z" fill="black"/>
<path d="M189.05 23.91C186.05 23.91 183.51 23.46 181.45 22.55C179.39 21.64 177.83 20.3 176.79 18.51C175.75 16.73 175.23 14.54 175.23 11.93C175.23 8.11999 176.42 5.17999 178.79 3.09999C181.17 1.02999 184.56 -0.0100098 188.98 -0.0100098C191.56 -0.0100098 193.82 0.32999 195.77 0.99999C197.72 1.66999 199.24 2.67999 200.33 4.00999C201.42 5.33999 201.96 6.99999 201.96 8.96999H198.36C198.36 7.57999 197.97 6.44999 197.18 5.58999C196.39 4.72999 195.29 4.09999 193.87 3.70999C192.45 3.31999 190.79 3.11999 188.91 3.11999C187.03 3.11999 185.23 3.42999 183.73 4.03999C182.23 4.65999 181.06 5.58999 180.22 6.82999C179.38 8.07999 178.96 9.62999 178.96 11.49V12.33C178.96 14.28 179.39 15.88 180.24 17.12C181.09 18.36 182.27 19.29 183.79 19.89C185.3 20.5 187.06 20.8 189.05 20.8C191.04 20.8 192.61 20.59 194.03 20.18C195.45 19.77 196.54 19.13 197.31 18.26C198.08 17.4 198.47 16.3 198.47 14.98H202C202 16.93 201.45 18.57 200.35 19.89C199.25 21.21 197.73 22.21 195.79 22.88C193.85 23.55 191.6 23.89 189.05 23.89V23.91Z" fill="black"/>
<path d="M221.67 23.51V3.63002H211.24V0.400024H235.79V3.63002H225.33V23.51H221.66H221.67Z" fill="black"/>
<path d="M247.09 23.51V0.400024H250.72V23.51H247.09Z" fill="black"/>
<path d="M278.31 23.91C275.31 23.91 272.71 23.45 270.52 22.53C268.33 21.61 266.65 20.27 265.48 18.49C264.3 16.72 263.71 14.54 263.71 11.96C263.71 9.37998 264.3 7.16998 265.48 5.39998C266.66 3.62998 268.34 2.27998 270.52 1.35998C272.71 0.43998 275.3 -0.0200195 278.31 -0.0200195C281.32 -0.0200195 283.94 0.43998 286.11 1.35998C288.28 2.27998 289.96 3.61998 291.14 5.39998C292.32 7.16998 292.91 9.35998 292.91 11.96C292.91 14.56 292.32 16.71 291.14 18.49C289.96 20.26 288.29 21.61 286.11 22.53C283.93 23.45 281.33 23.91 278.31 23.91ZM278.31 20.82C279.86 20.82 281.29 20.65 282.6 20.32C283.91 19.98 285.06 19.47 286.05 18.79C287.04 18.11 287.8 17.23 288.35 16.15C288.9 15.07 289.17 13.8 289.17 12.32V11.58C289.17 10.1 288.9 8.82998 288.35 7.75998C287.8 6.69998 287.03 5.81998 286.05 5.13998C285.06 4.45998 283.91 3.94998 282.6 3.62998C281.29 3.30998 279.86 3.13998 278.31 3.13998C276.76 3.13998 275.36 3.29998 274.04 3.62998C272.72 3.95998 271.56 4.45998 270.58 5.13998C269.59 5.81998 268.83 6.69998 268.29 7.75998C267.75 8.82998 267.48 10.1 267.48 11.58V12.32C267.48 13.8 267.75 15.08 268.29 16.15C268.83 17.22 269.6 18.11 270.59 18.79C271.59 19.47 272.74 19.98 274.05 20.32C275.36 20.66 276.78 20.82 278.3 20.82H278.31Z" fill="black"/>
<path d="M305.88 23.51V0.400024H309.41L323.91 15.1C324.16 15.32 324.45 15.62 324.78 15.99C325.11 16.36 325.46 16.72 325.81 17.08C326.16 17.44 326.45 17.76 326.7 18.06H326.97C326.95 17.63 326.93 17.1 326.92 16.46C326.91 15.82 326.9 15.25 326.9 14.76V0.400024H330.43V23.51H327.07L312.51 8.68003C311.99 8.16003 311.46 7.61002 310.91 7.01002C310.36 6.42002 309.93 5.94002 309.62 5.58002H309.38C309.38 5.96002 309.38 6.50002 309.4 7.21002C309.41 7.92002 309.42 8.63002 309.42 9.35003V23.51H305.89H305.88Z" fill="black"/>
</g>
<defs>
<clipPath id="clip0_201_2">
<rect width="330.43" height="23.91" fill="white"/>
</clipPath>
</defs>
</svg>
